# xmcd
#
# Track frame offsets:
#	150
#	12065
#	25597
#	40392
#	54422
#	68285
#	83240
#	96697
#	110015
#	122495
#	135730
#	143845
#	156467
#	169022
#	181715
#	193545
#	206000
#	219670
#	232740
#	246070
#	258315
#	271195
#	284250
#	296982
#	309552
#	321800
#
# Disc length: 4447 seconds
#
# Revision: 0
# Processed by: cddbd v1.5.2PL0 Copyright (c) Steve Scherf et al.
# Submitted via: EasyCDDAExtractor 2010.3.0.0
#
DISCID=74115d1a
DTITLE=Autry Gene - That Silver Haired Daddy Of Mine Disc 1
DYEAR=1900
DGENRE=
TTITLE0=My Dreaming Of You
TTITLE1=My Alabama Home
TTITLE2=Stay Away From My Chicken House
TTITLE3=My Oklahoma Home
TTITLE4=I'll Be Thinking Out You Little Gal
TTITLE5=I'll Be Thinking Ou You Little Gal (Alt.)
TTITLE6=Cowboy Yodel
TTITLE7=Why Don't You Come Back To Me
TTITLE8=No One To Call Me Darling
TTITLE9=Living In The Mountains
TTITLE10=Yodelin' Gene
TTITLE11=Blue Yodel No. 5
TTITLE12=Left My Gal In The Mountains
TTITLE13=Why Don't You Come Back To Me (Alt.)
TTITLE14=Hobo Yodel
TTITLE15=Dust Pan Blues
TTITLE16=No One To Call Me Darling (Alt.)
TTITLE17=Frankie And Johnny
TTITLE18=Railroad Boomer
TTITLE19=My Alabama Home
TTITLE20=Slue Foot Lue
TTITLE21=Stay Away From My Chicken House (Alt.)
TTITLE22=Waiting For A Train
TTITLE23=Lullaby Yodel
TTITLE24=California Blues (Blue Yodel No. 4)
TTITLE25=Daddy And Home
EXTD=
EXTT0=
EXTT1=
EXTT2=
EXTT3=
EXTT4=
EXTT5=
EXTT6=
EXTT7=
EXTT8=
EXTT9=
EXTT10=
EXTT11=
EXTT12=
EXTT13=
EXTT14=
EXTT15=
EXTT16=
EXTT17=
EXTT18=
EXTT19=
EXTT20=
EXTT21=
EXTT22=
EXTT23=
EXTT24=
EXTT25=
PLAYORDER=
